<?xml version="1.0" standalone="no"?>
<!DOCTYPE svg PUBLIC "-//W3C//DTD SVG 20010904//EN"
 "http://www.w3.org/TR/2001/REC-SVG-20010904/DTD/svg10.dtd">
<svg version="1.0" xmlns="http://www.w3.org/2000/svg"
 width="1136.000000pt" height="757.000000pt" viewBox="0 0 1136.000000 757.000000"
 preserveAspectRatio="xMidYMid meet">

<g transform="translate(0.000000,757.000000) scale(0.100000,-0.100000)"
fill="#000000" stroke="none">
<path d="M0 3785 l0 -3785 5680 0 5680 0 0 3785 0 3785 -5680 0 -5680 0 0
-3785z m6656 2739 c18 -14 18 -14 -6 -3 -31 14 -36 19 -24 19 6 0 19 -7 30
-16z m-339 -240 c-3 -3 -12 -4 -19 -1 -8 3 -5 6 6 6 11 1 17 -2 13 -5z m-1147
-51 c-48 -7 -90 -8 -90 -2 0 10 58 16 85 9 13 -3 15 -5 5 -7z m1075 -61 c-3
-3 -11 0 -18 7 -9 10 -8 11 6 5 10 -3 15 -9 12 -12z m51 -19 c-10 -10 -19 5
-10 18 6 11 8 11 12 0 2 -7 1 -15 -2 -18z m-182 -79 c3 -8 2 -12 -4 -9 -6 3
-10 10 -10 16 0 14 7 11 14 -7z m136 6 c13 -8 12 -13 -7 -32 -20 -19 -23 -20
-23 -5 0 9 8 17 18 17 13 1 11 4 -8 15 -15 8 -19 14 -10 14 8 1 22 -4 30 -9z
m-562 -52 c9 -9 12 -9 12 1 0 11 14 13 61 8 100 -9 85 -22 -24 -21 -126 1
-139 3 -112 14 29 12 49 12 63 -2z m-543 -33 c-63 -18 -78 -18 -40 0 17 7 44
13 60 14 24 0 19 -3 -20 -14z m495 -5 c0 -5 -4 -10 -9 -10 -6 0 -13 5 -16 10
-3 6 1 10 9 10 9 0 16 -4 16 -10z m36 -2 c4 -6 3 -8 -4 -4 -5 3 -13 0 -15 -6
-3 -8 -6 -6 -6 5 -1 19 14 23 25 5z m-169 -24 c-3 -3 -12 -4 -19 -1 -8 3 -5 6
6 6 11 1 17 -2 13 -5z m-192 -29 c-16 -8 -37 -14 -45 -15 -12 0 -13 -2 -1 -9
11 -7 10 -11 -6 -20 -11 -5 -23 -7 -27 -3 -4 3 -11 0 -15 -7 -10 -15 -51 -6
-51 11 0 5 7 8 15 4 8 -3 20 1 27 7 18 18 88 46 113 46 15 -1 13 -4 -10 -14z
m-380 -15 c-3 -5 -10 -10 -16 -10 -5 0 -9 5 -9 10 0 6 7 10 16 10 8 0 12 -4 9
-10z m249 -61 c-3 -5 -15 -9 -27 -9 -13 0 -33 -7 -45 -16 -12 -8 -22 -13 -22
-10 0 11 75 53 87 49 7 -3 10 -9 7 -14z m-284 -74 c-14 -8 -29 -14 -35 -14 -5
0 1 6 15 14 14 8 30 14 35 14 6 0 -1 -6 -15 -14z m2405 -25 c10 -11 14 -20 9
-20 -5 0 -15 9 -22 20 -7 11 -11 20 -9 20 2 0 12 -9 22 -20z m-2625 -14 c0 -2
-12 -12 -27 -21 l-28 -18 19 21 c17 20 36 29 36 18z m2791 -27 c13 -26 7 -24
-22 7 -17 19 -19 23 -6 18 10 -3 22 -15 28 -25z m-126 -9 c10 -11 16 -20 13
-20 -3 0 -13 9 -23 20 -10 11 -16 20 -13 20 3 0 13 -9 23 -20z m-28 -50 c9 3
134 -180 129 -189 -3 -6 37 -82 94 -178 38 -62 62 -113 55 -113 -3 0 -21 33
-41 73 -31 60 -38 69 -45 52 -7 -18 -8 -18 -8 -2 -1 10 -5 16 -10 13 -5 -4 -7
3 -4 14 6 22 -12 28 -20 8 -3 -7 -6 -4 -6 7 -1 11 -11 31 -22 45 -20 24 -21
25 -16 2 3 -12 1 -20 -3 -17 -5 3 -11 19 -15 35 -4 17 -14 36 -23 43 -9 7 -33
30 -52 52 -19 21 -28 34 -18 27 9 -7 18 -9 20 -5 3 4 4 3 2 -3 -1 -7 9 -22 23
-35 l25 -24 -20 41 c-11 22 -28 46 -36 54 -21 17 -50 79 -49 102 1 10 -2 16
-6 13 -5 -2 -11 5 -14 16 -5 20 -3 19 23 -6 15 -15 32 -26 37 -25z m63 0 c6
-11 8 -20 6 -20 -3 0 -10 9 -16 20 -6 11 -8 20 -6 20 3 0 10 -9 16 -20z m168
-15 c-3 -3 -9 2 -12 12 -6 14 -5 15 5 6 7 -7 10 -15 7 -18z m-2708 -14 c0 -9
-55 -41 -69 -41 -12 0 40 38 67 49 1 1 2 -3 2 -8z m2514 -223 c-3 -4 2 -11 11
-14 9 -4 14 -12 12 -18 -3 -7 1 -23 9 -37 7 -13 13 -20 14 -16 0 5 -5 17 -10
27 -7 13 -7 21 0 25 5 3 10 0 10 -8 0 -8 12 -22 26 -32 14 -9 23 -19 20 -22
-3 -3 -1 -15 5 -27 7 -14 1 -11 -16 9 -19 22 -27 27 -33 17 -6 -9 -17 3 -36
38 -15 27 -25 54 -22 58 3 5 -1 18 -9 28 -8 10 -14 24 -15 29 0 6 9 -3 19 -19
11 -17 18 -33 15 -38z m140 -131 c12 -10 14 -15 6 -11 -29 14 -49 37 -43 47 4
7 8 6 11 -3 3 -8 15 -23 26 -33z m-17 -226 c3 -14 15 -43 25 -65 25 -50 49
-127 42 -138 -3 -5 0 -7 6 -6 13 3 59 -97 59 -127 -1 -15 -4 -13 -14 10 -9 19
-14 24 -15 12 0 -9 13 -31 30 -48 16 -17 32 -48 36 -68 4 -20 16 -47 28 -61
20 -24 20 -24 0 -7 -27 22 -34 22 -34 -5 0 -30 -9 -17 -13 18 -2 28 -52 116
-69 122 -4 2 -6 7 -3 12 3 4 -2 21 -10 36 -8 16 -15 25 -16 19 -3 -31 4 -79
17 -103 8 -15 14 -33 14 -40 0 -7 4 -11 8 -8 5 3 8 -32 8 -78 -1 -48 3 -82 8
-79 5 4 6 2 3 -4 -4 -6 5 -21 20 -34 l26 -24 -6 25 c-4 14 -7 35 -7 48 0 13
-3 21 -7 19 -5 -3 -8 7 -8 21 -1 15 -4 38 -8 52 -4 14 -4 19 -1 12 3 -6 9 -10
14 -7 4 3 6 -4 3 -15 -3 -11 -1 -20 4 -20 5 0 10 -6 10 -12 1 -7 9 -62 18
-121 15 -89 16 -116 6 -149 -15 -50 -22 -46 -12 7 4 22 4 51 0 65 l-7 25 -1
-25 c-1 -14 -10 -52 -20 -85 -14 -44 -16 -62 -7 -67 8 -6 8 -8 -1 -8 -7 0 -13
-9 -13 -20 0 -11 -4 -20 -9 -20 -10 0 -4 39 16 103 8 27 13 57 10 68 -3 10 -1
19 4 19 14 0 11 46 -5 85 -13 31 -25 40 -48 36 -5 0 -7 2 -7 6 1 5 0 10 -1 13
-1 3 -4 30 -6 60 -3 30 -10 71 -16 90 -7 19 -13 51 -14 70 -1 19 -3 35 -4 35
-1 0 -3 18 -4 40 -1 22 -10 53 -20 68 -22 33 -34 29 -13 -5 8 -12 17 -36 21
-53 6 -28 5 -29 -9 -11 -20 26 -19 13 1 -26 11 -22 13 -33 5 -41 -14 -14 -14
-40 0 -31 8 4 9 0 4 -15 -4 -15 -2 -21 8 -21 10 0 14 -14 15 -47 0 -29 -3 -41
-8 -32 -5 7 -12 11 -15 7 -3 -3 7 -20 22 -39 20 -23 23 -31 11 -26 -15 5 -18
1 -18 -21 0 -42 32 -122 49 -123 12 -1 11 -3 -2 -6 -14 -4 -17 -11 -12 -30 10
-41 7 -212 -4 -231 -8 -13 -9 -9 -5 18 l5 35 -17 -39 c-16 -35 -16 -40 -2 -50
13 -9 14 -17 4 -45 -6 -19 -18 -37 -26 -39 -12 -4 -11 -1 3 15 9 11 16 30 16
44 -1 20 -2 21 -6 4 -8 -34 -22 -40 -17 -7 3 17 0 33 -6 37 -6 4 -10 3 -8 -2
1 -4 -3 -25 -9 -45 -12 -40 -12 -56 0 -75 6 -9 3 -11 -7 -7 -13 5 -16 -1 -16
-30 0 -20 -4 -36 -10 -36 -5 0 -7 -7 -3 -15 3 -10 1 -15 -8 -13 -18 4 -24 -34
-7 -46 17 -12 55 -81 40 -72 -14 8 -22 -56 -9 -72 7 -9 6 -11 -4 -7 -16 6 -44
-73 -55 -158 -4 -26 -11 -50 -15 -53 -5 -3 -9 -15 -10 -27 -1 -18 -2 -16 -10
7 -5 20 -4 34 3 43 6 7 8 16 4 20 -3 3 -6 1 -6 -5 0 -6 -9 -16 -20 -22 -18
-10 -19 -9 -9 17 5 15 15 33 21 40 6 8 8 16 4 20 -3 3 -6 1 -6 -5 0 -7 -5 -12
-10 -12 -6 0 -8 12 -5 28 5 23 5 24 -5 9 -7 -10 -10 -24 -7 -30 3 -7 -5 -24
-16 -37 -16 -20 -19 -21 -12 -5 9 24 18 76 9 58 -9 -20 -27 -15 -20 4 6 15 4
15 -14 -2 -11 -10 -20 -13 -20 -7 0 7 -7 9 -17 5 -17 -6 -17 -5 -1 13 21 24
108 195 108 211 0 7 5 13 10 13 6 0 10 -8 10 -17 0 -15 2 -16 10 -3 6 10 6 16
0 18 -14 5 -13 55 1 69 6 6 13 46 15 89 3 50 9 83 19 94 8 9 15 21 15 26 0 5
-7 0 -15 -10 -8 -11 -16 -18 -18 -15 -19 23 -60 158 -64 214 -3 39 -13 80 -21
93 -13 20 -13 22 0 17 9 -4 18 1 22 10 3 9 2 13 -4 10 -6 -3 -10 1 -10 10 0
10 5 13 13 9 7 -5 6 0 -3 10 -18 23 -24 72 -20 159 2 25 20 21 22 -5 2 -30 3
-36 13 -78 5 -19 8 -39 7 -43 -2 -5 2 -6 8 -2 5 3 10 1 10 -4 0 -21 3 -26 24
-52 13 -15 28 -40 35 -58 8 -17 17 -29 21 -26 5 3 6 -36 4 -87 -5 -91 1 -113
13 -47 8 51 10 242 1 260 -4 10 -2 16 8 16 10 0 14 -12 14 -38 0 -37 14 -61
22 -38 8 24 -15 119 -29 119 -7 0 -13 11 -13 24 0 32 -16 73 -35 92 -8 9 -15
25 -16 37 0 12 -3 16 -6 9 -3 -9 -10 -4 -19 13 -17 32 -17 38 -4 30 6 -3 10 1
10 10 0 11 -5 15 -16 11 -9 -3 -12 -2 -9 5 4 6 -1 20 -12 32 -15 19 -16 20 0
8 23 -18 23 1 0 37 l-17 27 23 -20 23 -20 -13 28 c-7 15 -15 27 -19 27 -7 0
-7 17 -1 88 1 25 3 25 15 10 16 -21 24 -23 23 -5 -1 40 3 45 31 38 15 -5 26
-13 25 -20 -2 -6 2 -11 7 -11 6 0 19 -15 30 -32 35 -57 21 -16 -25 77 -49 99
-61 143 -15 55 28 -54 40 -50 20 7 -8 23 -8 25 3 10 34 -51 37 -53 27 -19 -5
18 -18 48 -29 66 -25 40 -26 47 -6 40 8 -4 18 -18 22 -33z m-190 -173 c-3 -8
-6 -5 -6 6 -1 11 2 17 5 13 3 -3 4 -12 1 -19z m369 -79 c9 -48 -5 -30 -27 33
-23 67 -23 70 1 32 11 -17 23 -46 26 -65z m-334 -19 c3 -16 1 -30 -3 -30 -9 0
-29 57 -22 64 11 10 21 -4 25 -34z m-17 -69 c4 -21 2 -30 -5 -26 -5 3 -10 13
-10 21 0 8 -5 12 -11 9 -6 -4 -5 2 2 13 16 25 16 25 24 -17z m-2685 25 c0 -3
-4 -8 -10 -11 -5 -3 -10 -1 -10 4 0 6 5 11 10 11 6 0 10 -2 10 -4z m2712 -95
c-12 -7 0 -33 14 -32 5 0 9 -6 9 -13 0 -8 4 -18 8 -22 11 -12 8 -42 -5 -47
-10 -3 -9 -8 2 -22 8 -10 10 -16 4 -12 -8 4 -10 -10 -8 -46 3 -39 1 -46 -5
-27 -5 14 -9 47 -10 73 -1 26 -8 64 -16 85 -17 39 -12 88 6 76 8 -4 8 -8 1
-13z m-2692 -32 c0 -6 -4 -7 -10 -4 -5 3 -10 11 -10 16 0 6 5 7 10 4 6 -3 10
-11 10 -16z m76 -215 c4 -40 0 -73 -10 -104 -9 -25 -14 -34 -11 -20 15 76 17
130 6 130 -7 0 -9 5 -6 10 3 6 2 10 -2 10 -5 0 -14 21 -20 48 -5 26 -13 56
-17 67 -4 11 6 -3 23 -31 22 -36 33 -69 37 -110z m2696 -4 c-6 -33 -7 -31 -13
25 -3 33 -3 64 0 70 9 18 20 -59 13 -95z m337 -29 c2 -26 -13 -1 -16 27 -2 23
-1 24 7 7 5 -11 9 -26 9 -34z m111 -30 c0 -10 -8 -29 -18 -41 l-19 -23 -23 34
-24 34 28 -25 c23 -21 29 -22 36 -10 5 8 10 23 10 33 0 9 2 17 5 17 3 0 5 -9
5 -19z m-137 -44 c-10 -10 -27 -24 -38 -29 -13 -7 -11 -2 8 16 24 22 26 29 16
48 -12 23 -12 23 10 4 20 -18 20 -20 4 -39z m-283 -7 c0 -5 -2 -10 -4 -10 -3
0 -8 5 -11 10 -3 6 -1 10 4 10 6 0 11 -4 11 -10z m-540 -30 c0 -5 -7 -10 -15
-10 -8 0 -15 5 -15 10 0 6 7 10 15 10 8 0 15 -4 15 -10z m-6 -35 c17 -13 17
-16 2 -46 -20 -39 -20 -39 -1 -39 12 0 14 -10 9 -54 -7 -55 12 -150 27 -140
15 9 31 -38 21 -60 -5 -11 -15 -34 -21 -50 -11 -27 -11 -28 4 -16 14 12 16 11
10 -13 -10 -36 22 -95 79 -147 25 -23 58 -62 73 -86 28 -44 42 -55 44 -31 0 6
5 1 11 -13 6 -14 10 -29 9 -34 -1 -5 5 -6 14 -2 12 4 14 0 11 -19 -3 -14 0
-27 5 -31 13 -7 2 -23 -25 -35 -15 -6 -11 -7 17 -3 25 4 37 2 37 -5 0 -7 4
-10 9 -6 5 3 12 -4 16 -15 3 -11 13 -20 20 -20 9 0 12 -6 8 -17 -4 -13 -3 -15
5 -8 5 6 13 19 16 30 3 11 4 5 2 -12 -1 -18 1 -33 5 -33 9 0 6 -77 -4 -86 -4
-4 -7 6 -7 22 l-1 29 -24 -27 c-13 -16 -29 -28 -35 -28 -5 0 -10 -5 -10 -11 0
-6 -7 -9 -15 -5 -18 7 -45 -19 -45 -45 0 -22 -42 -69 -61 -69 -6 0 0 12 15 26
14 15 26 30 26 35 0 4 3 15 6 23 5 12 2 15 -11 10 -11 -4 -7 3 10 20 15 15 24
33 21 41 -3 8 -1 15 4 15 6 0 10 5 10 12 0 6 -9 3 -20 -7 -11 -10 -20 -14 -20
-10 0 5 -14 -6 -32 -24 -29 -30 -96 -71 -115 -71 -4 0 10 11 32 24 22 13 50
37 61 53 19 26 20 29 4 29 -10 0 -16 -6 -13 -12 2 -7 0 -15 -6 -19 -6 -3 -11
1 -11 9 0 8 -15 20 -34 27 -19 7 -39 22 -44 33 -8 20 -10 19 -25 -9 -9 -17
-16 -24 -17 -17 0 6 -9 12 -20 12 -16 0 -20 7 -21 33 l-1 32 -10 -35 c-5 -19
-12 -48 -15 -64 -4 -21 -8 -25 -15 -15 -7 10 -8 5 -4 -16 3 -16 3 -24 0 -17
-5 10 -9 10 -21 0 -14 -11 -15 -10 -9 10 5 16 4 21 -6 17 -16 -6 -53 73 -62
134 -10 65 -32 101 -61 101 -22 0 -25 4 -25 39 0 34 5 44 35 67 20 15 34 29
31 31 -2 3 -18 -5 -35 -18 -17 -12 -34 -20 -38 -16 -3 4 -2 7 4 7 16 0 70 89
78 129 4 21 14 35 26 38 10 3 19 11 19 19 0 21 37 77 44 66 3 -5 7 -23 8 -41
1 -17 6 -31 10 -31 13 0 9 28 -9 68 -9 20 -15 40 -15 45 1 4 -3 7 -9 7 -6 0
-8 -7 -5 -16 3 -9 3 -20 0 -25 -8 -14 -43 33 -37 51 3 8 -2 5 -12 -8 -12 -17
-20 -20 -29 -13 -7 6 -16 8 -19 5 -12 -12 -38 26 -32 46 5 15 12 19 30 14 13
-3 28 -3 33 0 12 7 4 46 -10 46 -5 0 -6 -4 -3 -10 3 -5 -1 -10 -9 -10 -9 0
-16 4 -16 9 0 15 37 23 57 13 25 -13 43 -4 44 21 0 21 1 21 9 2 6 -13 9 -15 9
-5 1 12 3 12 10 2 5 -8 8 21 8 72 0 47 -4 86 -9 86 -5 0 -2 7 6 16 9 8 16 24
16 35 0 22 8 24 34 4z m33 -42 c-3 -10 -5 -4 -5 12 0 17 2 24 5 18 2 -7 2 -21
0 -30z m-2296 -120 c-12 -20 -14 -14 -5 12 4 9 9 14 11 11 3 -2 0 -13 -6 -23z
m2645 -51 c21 -22 49 -107 46 -145 -1 -16 2 -16 14 -6 14 11 15 9 11 -18 -7
-42 -40 -115 -61 -132 -16 -13 -17 -12 -15 10 4 49 -1 110 -10 105 -5 -3 -9 9
-9 28 0 18 -5 43 -11 55 -7 12 -9 27 -5 33 4 6 3 8 -3 5 -6 -4 -15 10 -21 32
-8 35 -7 42 12 58 12 11 23 15 25 9 2 -6 14 -21 27 -34z m-2663 13 c-3 -9 -8
-14 -10 -11 -3 3 -2 9 2 15 9 16 15 13 8 -4z m3043 -158 c-9 -23 -17 -64 -17
-90 -2 -40 -8 -54 -38 -86 -20 -20 -31 -30 -25 -22 29 40 45 85 39 108 -3 14
-2 30 3 36 20 25 35 93 34 156 l0 66 10 -63 c8 -52 7 -72 -6 -105z m-56 143
c0 -5 -4 -10 -9 -10 -6 0 -13 5 -16 10 -3 6 1 10 9 10 9 0 16 -4 16 -10z
m-464 -121 c-3 -17 -1 -40 5 -51 7 -13 7 -18 1 -14 -6 3 -12 0 -15 -6 -2 -7
-8 0 -12 15 -7 26 -8 26 -21 10 -13 -17 -14 -17 -7 2 4 11 15 26 25 33 10 7
18 20 18 28 0 8 3 14 6 14 4 0 4 -14 0 -31z m75 -3 c7 4 9 0 5 -12 -3 -11 0
-38 7 -62 13 -44 2 -152 -16 -152 -5 0 -6 17 -2 38 3 21 1 67 -5 102 -7 36
-14 79 -16 95 -4 28 -3 28 6 7 6 -13 15 -20 21 -16z m-100 1 c-10 -9 -11 -8
-5 6 3 10 9 15 12 12 3 -3 0 -11 -7 -18z m-2506 -34 c17 -17 84 -33 137 -33
63 0 82 -31 58 -96 -14 -37 -21 -26 -11 18 12 52 2 60 -73 63 -57 2 -72 6
-104 32 -20 17 -38 39 -40 49 -3 18 -2 18 9 -1 7 -11 18 -25 24 -32z m2563
-118 c1 -25 -2 -45 -7 -45 -9 0 -19 70 -13 89 8 23 19 0 20 -44z m331 -82 c1
-58 -3 -104 -9 -108 -11 -7 -11 -6 -13 77 -1 32 2 51 6 45 5 -7 6 20 4 58 -3
41 -1 62 4 50 4 -11 8 -66 8 -122z m-849 106 c0 -5 -4 -9 -10 -9 -5 0 -10 7
-10 16 0 8 5 12 10 9 6 -3 10 -10 10 -16z m950 2 c-16 -31 -32 -36 -18 -7 6
14 15 26 20 26 5 0 4 -9 -2 -19z m-917 -106 c-3 -9 -8 -14 -10 -11 -3 3 -2 9
2 15 9 16 15 13 8 -4z m848 -58 c-10 -9 -11 -8 -5 6 3 10 9 15 12 12 3 -3 0
-11 -7 -18z m-401 -33 c0 -20 -7 -17 -20 6 -9 16 -8 18 5 14 8 -4 15 -12 15
-20z m-2245 -109 c19 -15 18 -15 -12 -1 -17 9 -35 21 -39 27 -8 13 21 -1 51
-26z m2396 -42 c13 -16 12 -17 -3 -4 -10 7 -18 15 -18 17 0 8 8 3 21 -13z m65
-171 c-11 -10 -14 3 -8 33 l7 30 3 -28 c2 -16 1 -31 -2 -35z m-396 -39 c-10
-16 -11 -15 -6 7 3 14 6 34 7 45 1 13 3 11 6 -7 2 -15 -1 -35 -7 -45z m-23 35
c-3 -8 -6 -5 -6 6 -1 11 2 17 5 13 3 -3 4 -12 1 -19z m410 -70 c-2 -13 -4 -3
-4 22 0 25 2 35 4 23 2 -13 2 -33 0 -45z m-1757 -13 c12 -25 20 -49 16 -52 -3
-3 -11 8 -17 25 -6 18 -15 32 -20 32 -5 0 -16 14 -24 31 -16 29 -16 30 3 20
11 -6 30 -31 42 -56z m1345 26 c-3 -6 -14 -11 -23 -11 -13 0 -13 2 4 14 21 15
30 14 19 -3z m-1595 -29 c0 -11 -80 -36 -88 -28 -9 10 6 19 45 26 21 4 39 8
41 9 1 0 2 -3 2 -7z m1613 1 c-7 -2 -19 -2 -25 0 -7 3 -2 5 12 5 14 0 19 -2
13 -5z m-1727 -35 c-9 -5 -21 -6 -28 -2 -8 5 -5 10 8 14 25 10 41 0 20 -12z
m403 -73 l0 -20 -9 20 c-5 11 -9 27 -9 35 -1 13 0 13 9 0 5 -8 9 -24 9 -35z
m14 -45 c3 -11 1 -20 -4 -20 -5 0 -9 9 -9 20 0 11 2 20 4 20 2 0 6 -9 9 -20z
m10 -160 l2 -123 -35 -36 c-59 -60 -102 -120 -128 -176 -10 -20 -127 -138
-211 -211 -87 -76 -93 -83 -87 -99 7 -18 37 -20 54 -3 7 7 12 8 12 2 0 -17
-56 -65 -65 -57 -4 5 -5 3 -1 -4 3 -6 -1 -16 -10 -21 -9 -5 -15 -11 -13 -13 6
-9 -34 -59 -48 -59 -8 0 -12 -4 -9 -9 8 -13 -21 -34 -39 -28 -19 8 -31 -13
-14 -25 10 -7 6 -8 -14 -3 -20 4 -28 2 -26 -7 3 -28 -2 -36 -21 -31 -11 3 -20
1 -20 -5 0 -6 8 -13 18 -15 13 -4 12 -5 -5 -6 -26 -1 -73 -38 -73 -57 0 -6 -7
-14 -15 -18 -8 -3 -15 -11 -15 -18 0 -7 -9 -19 -21 -26 -12 -7 -19 -16 -16
-19 3 -3 -3 -14 -14 -26 -10 -11 -19 -27 -19 -34 0 -7 -4 -13 -10 -13 -5 0
-10 -5 -10 -11 0 -6 -9 -23 -21 -37 -42 -54 -89 -134 -83 -143 3 -5 -2 -9 -10
-9 -14 0 -20 -12 -17 -32 0 -5 -3 -8 -9 -8 -5 0 -24 -25 -41 -55 -17 -30 -35
-58 -40 -61 -5 -3 -7 -10 -4 -15 4 -5 -1 -9 -10 -9 -9 0 -14 -4 -11 -9 3 -5
-23 -39 -59 -76 -36 -37 -65 -70 -65 -75 0 -4 -7 -11 -15 -14 -14 -5 35 78 55
94 11 9 147 195 165 225 l17 30 -22 -25 c-12 -14 -38 -43 -57 -65 -47 -53 -32
-27 35 63 30 40 58 69 64 65 6 -3 8 -1 4 5 -3 5 27 55 67 109 41 54 98 134
127 178 129 194 228 315 377 462 85 84 151 157 148 163 -3 5 0 10 7 10 18 1
73 76 94 130 10 25 32 68 49 95 17 28 33 55 34 60 1 6 8 17 15 25 33 41 42 74
45 169 0 19 4 32 7 29 3 -3 6 -61 7 -128z m1621 38 c-23 -45 -64 -98 -76 -98
-6 0 4 16 22 36 17 20 39 51 48 70 8 19 17 32 20 30 2 -2 -4 -19 -14 -38z
m-1610 -225 c-21 -25 -53 -62 -72 -82 -18 -20 -47 -54 -65 -75 -118 -144 -269
-310 -252 -278 8 16 -1 15 -31 -4 -25 -17 -41 -14 -29 5 3 6 14 11 23 11 21 1
149 122 226 215 33 39 84 98 115 133 31 34 56 68 56 75 1 6 6 11 12 10 6 -1
19 7 28 17 35 38 27 19 -11 -27z"/>
<path d="M7286 5648 c4 -5 12 -7 20 -4 8 3 14 1 14 -4 0 -6 -6 -10 -12 -10 -7
0 -5 -5 5 -11 9 -5 17 -15 17 -21 0 -9 53 -81 83 -113 12 -13 -10 30 -41 80
-14 22 -31 51 -38 64 -7 14 -22 25 -33 26 -11 1 -18 -2 -15 -7z"/>
<path d="M7477 4926 c-3 -8 1 -22 8 -33 13 -17 13 -16 11 10 -4 33 -12 43 -19
23z"/>
<path d="M7556 4805 c4 -16 7 -39 6 -50 0 -19 0 -19 10 1 7 16 6 29 -7 50
l-16 29 7 -30z"/>
<path d="M7452 4705 c0 -16 2 -22 5 -12 2 9 2 23 0 30 -3 6 -5 -1 -5 -18z"/>
<path d="M7431 4700 c-1 -8 7 -44 17 -80 17 -60 19 -62 25 -33 3 16 2 43 -3
59 -6 22 -9 24 -10 9 -1 -13 -7 -6 -15 20 -8 22 -14 33 -14 25z"/>
<path d="M7607 4656 c-3 -8 1 -22 8 -33 13 -17 14 -16 15 9 0 30 -15 46 -23
24z"/>
<path d="M7421 4634 c0 -11 3 -14 6 -6 3 7 2 16 -1 19 -3 4 -6 -2 -5 -13z"/>
<path d="M7531 4637 c-1 -10 4 -27 9 -38 6 -10 15 -45 19 -77 7 -49 9 -51 9
-17 1 40 -35 167 -37 132z"/>
<path d="M7481 4580 c0 -8 4 -22 9 -30 12 -18 12 -2 0 25 -6 13 -9 15 -9 5z"/>
<path d="M7510 4300 c0 -5 -8 -10 -17 -10 -14 0 -15 -2 -5 -9 8 -4 13 -12 13
-17 -2 -27 13 -84 21 -84 6 0 8 17 4 43 -4 23 -7 52 -7 65 -1 21 -9 32 -9 12z"/>
<path d="M7502 4125 c-7 -25 -12 -55 -12 -68 1 -22 1 -22 15 3 8 14 12 33 8
44 -3 10 -1 16 4 13 5 -3 7 7 5 24 -2 16 -5 29 -6 29 -1 0 -7 -20 -14 -45z"/>
<path d="M7472 4105 c0 -16 2 -22 5 -12 2 9 2 23 0 30 -3 6 -5 -1 -5 -18z"/>
<path d="M7426 4033 c-6 -14 -5 -15 5 -6 7 7 10 15 7 18 -3 3 -9 -2 -12 -12z"/>
<path d="M7423 3704 c6 -20 13 -31 15 -25 6 17 -7 61 -17 61 -5 0 -4 -16 2
-36z"/>
<path d="M7281 3564 c0 -11 3 -14 6 -6 3 7 2 16 -1 19 -3 4 -6 -2 -5 -13z"/>
<path d="M6880 4109 c0 -5 5 -7 10 -4 6 3 10 8 10 11 0 2 -4 4 -10 4 -5 0 -10
-5 -10 -11z"/>
<path d="M6901 3724 c0 -11 3 -14 6 -6 3 7 2 16 -1 19 -3 4 -6 -2 -5 -13z"/>
<path d="M6813 3671 c-13 -11 -23 -22 -23 -25 0 -10 39 18 44 31 7 17 6 16
-21 -6z"/>
<path d="M6852 3588 c-15 -15 -16 -38 -2 -38 12 0 23 25 18 40 -2 7 -7 7 -16
-2z"/>
<path d="M6884 3505 c-3 -8 1 -22 10 -30 15 -15 16 -14 16 14 0 32 -16 42 -26
16z"/>
<path d="M6931 3458 c-1 -21 15 -32 25 -17 4 7 3 9 -4 5 -6 -3 -13 2 -15 11
-4 16 -5 16 -6 1z"/>
<path d="M6781 3424 c0 -11 3 -14 6 -6 3 7 2 16 -1 19 -3 4 -6 -2 -5 -13z"/>
<path d="M7010 3410 c0 -10 99 -34 107 -26 4 3 -2 6 -13 6 -10 1 -36 7 -56 14
-21 8 -38 10 -38 6z"/>
<path d="M6807 3374 c-16 -19 -23 -35 -17 -39 5 -3 10 1 10 9 0 9 3 16 8 16 8
0 36 40 30 44 -2 2 -16 -12 -31 -30z"/>
<path d="M6857 3394 c-10 -11 -9 -54 2 -54 6 0 12 4 15 9 8 12 -8 54 -17 45z"/>
<path d="M6827 3343 c-11 -10 -8 -51 3 -58 6 -4 10 8 10 29 0 37 -2 41 -13 29z"/>
<path d="M6926 3336 c5 -13 4 -17 -4 -12 -7 4 -12 1 -12 -8 0 -9 4 -16 9 -16
15 0 23 32 11 44 -8 8 -9 6 -4 -8z"/>
<path d="M6865 3320 c-5 -8 -11 -24 -12 -35 -3 -18 -2 -18 12 3 9 12 15 28 13
34 -3 8 -7 8 -13 -2z"/>
<path d="M7187 3243 c-12 -11 -8 -30 6 -30 7 0 13 9 13 19 0 19 -8 23 -19 11z"/>
</g>
</svg>
